@startuml
title 基于GitHub的实验管理平台--类图
class users {
    <b>user_id</b> （用户ID）
    name （用户真实姓名）
    github_username （用户GitHub账号）
    update_date （用户GitHub账号修改日期）
    password （用户密码）
    disable （用户是否禁用）
    phone （电话号码）
    email （邮箱）

}
class teachers{
    <b>teacher_id</b> （老师工号）
    address （办公地点）
    department （老师所属学院）

}
class students{
    <b>student_id</b> （学号）
    class （班级）
    result_sum（成绩汇总）
    web_sum （网站正确与否汇总）
}
users <|- students
users <|-- teachers
class grades {
    <b>student_id</b> （学号）
    <b>test_id</b> （实验编号）
    <b>course_id</b>（课程编号）
    program1 （得分）
    rate1 （比例）
    memo1 （评价）
    program2
    rate2
    memo2
    program3
    rate3
    memo3
    program4
    rate4
    memo4
    program5
    rate5
    memo5
    result （分数）
    update_date （评改日期）
}

class tests {
    <b>test_id</b> （实验编号）
    <b>course_id</b>（课程编号）
    title (实验名称)
    timeline (截止时间)
}
class course{
    <b>course_id</b>（课程编号）
    <b>teacher_id</b>（授课教师工号）
    course_name（课程名称）
    term（学期）
    department（所属学院）
    testnum (实验次数)
    totalstudent (学生总数)
}

class courseChooise{
     <b>course_id</b>（课程编号）
    <b>student_id</b>（学生名字）
}

students "1" -- "n"  grades
tests "1" -- "n"  grades
tests "n" -- "1" course
courseChooise "1" -- "1"  students
courseChooise "1" -- "1"  course
@enduml